<svg width="145" height="33" viewBox="0 0 145 33" fill="none" xmlns="http://www.w3.org/2000/svg">
<path d="M117.892 25.2581C117.892 23.1194 118.66 21.4024 120.196 20.1071C121.763 18.7818 123.826 18.1191 126.387 18.1191C128.104 18.1191 129.519 18.4353 130.634 19.0679C131.779 19.7005 132.471 20.4987 132.712 21.4627H133.345V20.9204C133.345 19.8662 132.667 18.9474 131.312 18.1642C129.986 17.3811 128.36 16.9895 126.432 16.9895C123.962 16.9895 121.612 17.5467 119.383 18.6613V9.76007C122.185 8.82627 125.212 8.35938 128.465 8.35938C133.224 8.35938 136.794 9.24799 139.174 11.0252C141.553 12.8024 142.743 14.9261 142.743 17.3961C142.743 18.0889 142.653 18.8119 142.472 19.5649L141.93 22.1404H144.867V31.629H132.622L133.48 25.5744H132.758C132.697 27.5323 131.944 29.1439 130.498 30.409C129.052 31.6742 127.426 32.3067 125.619 32.3067C120.468 32.3067 117.892 29.9572 117.892 25.2581ZM130.453 24.5803C132.562 24.5803 133.616 24.1887 133.616 23.4056C133.616 22.6224 132.562 22.2308 130.453 22.2308C128.375 22.2308 127.335 22.6224 127.335 23.4056C127.335 24.1887 128.375 24.5803 130.453 24.5803Z" fill="#B4301A"/>
<path d="M102.432 9.03516L103.968 21.6866H104.555L105.911 9.03516H118.833L110.836 31.627H97.642L89.6445 9.03516H102.432Z" fill="#B4301A"/>
<path d="M75.5616 7.22959C76.5858 6.02469 77.0979 4.27759 77.0979 1.98828H83.288V9.03694H89.2523V19.4292H83.288V20.1069C83.288 21.3118 84.2369 21.9143 86.1346 21.9143C87.0985 21.9143 88.0625 21.7486 89.0264 21.4173V31.1318C87.0985 31.915 85.0803 32.3065 82.9718 32.3065C76.887 32.3065 73.8446 30.0022 73.8446 25.3934V19.4292H70.3203V9.03694C72.7904 9.03694 74.5375 8.43449 75.5616 7.22959Z" fill="#B4301A"/>
<path d="M58.3092 7.22959C59.3333 6.02469 59.8454 4.27759 59.8454 1.98828H66.0356V9.03694H71.9998V19.4292H66.0356V20.1069C66.0356 21.3118 66.9845 21.9143 68.8822 21.9143C69.8461 21.9143 70.81 21.7486 71.7739 21.4173V31.1318C69.8461 31.915 67.8279 32.3065 65.7193 32.3065C59.6346 32.3065 56.5922 30.0022 56.5922 25.3934V19.4292H53.0679V9.03694C55.5379 9.03694 57.285 8.43449 58.3092 7.22959Z" fill="#B4301A"/>
<path d="M27.1719 25.2581C27.1719 23.1194 27.94 21.4024 29.4762 20.1071C31.0426 18.7818 33.106 18.1191 35.6664 18.1191C37.3834 18.1191 38.7992 18.4353 39.9137 19.0679C41.0583 19.7005 41.7512 20.4987 41.9921 21.4627H42.6247V20.9204C42.6247 19.8662 41.9469 18.9474 40.5914 18.1642C39.2661 17.3811 37.6394 16.9895 35.7116 16.9895C33.2416 16.9895 30.892 17.5467 28.6629 18.6613V9.76007C31.4643 8.82627 34.4916 8.35938 37.7449 8.35938C42.5042 8.35938 46.0737 9.24799 48.4534 11.0252C50.8331 12.8024 52.0229 14.9261 52.0229 17.3961C52.0229 18.0889 51.9326 18.8119 51.7518 19.5649L51.2096 22.1404H54.1466V31.629H41.9018L42.7603 25.5744H42.0373C41.9771 27.5323 41.224 29.1439 39.7781 30.409C38.3323 31.6742 36.7056 32.3067 34.8983 32.3067C29.7473 32.3067 27.1719 29.9572 27.1719 25.2581ZM39.7329 24.5803C41.8415 24.5803 42.8958 24.1887 42.8958 23.4056C42.8958 22.6224 41.8415 22.2308 39.7329 22.2308C37.6545 22.2308 36.6153 22.6224 36.6153 23.4056C36.6153 24.1887 37.6545 24.5803 39.7329 24.5803Z" fill="#B4301A"/>
<path d="M27.3361 0L27.4717 13.9618L17.6216 13.5099L19.7905 31.6286H7.68123L9.80487 13.5099L0 13.9618L0.0903675 0H27.3361Z" fill="#B4301A"/>
</svg>
