<svg width="18" height="18" viewBox="0 0 18 18" fill="none" xmlns="http://www.w3.org/2000/svg">
<g clip-path="url(#clip0_122_54)">
<mask id="mask0_122_54" style="mask-type:luminance" maskUnits="userSpaceOnUse" x="0" y="0" width="18" height="18">
<path d="M0 1.90735e-06H18V18H0V1.90735e-06Z" fill="white"/>
</mask>
<g mask="url(#mask0_122_54)">
<path d="M16.4531 6.01204C18.5122 8.07149 17.8446 12.0782 14.9614 14.9614C12.0782 17.8446 8.07149 18.5122 6.01204 16.4531C4.62161 15.0627 4.4743 12.7849 5.41298 10.5641C5.86438 9.49567 6.56715 8.44028 7.50372 7.50375C7.51145 7.49598 7.51883 7.4886 7.52657 7.48122C7.96567 7.04458 8.43079 6.65926 8.91067 6.32668C9.44821 5.95473 10.0044 5.64926 10.5641 5.41297C12.7849 4.4743 15.0627 4.62161 16.4531 6.01204Z" stroke="#1C0701" stroke-width="0.703125" stroke-miterlimit="10" stroke-linecap="round" stroke-linejoin="round"/>
<path d="M5.41259 10.5641C4.49079 10.1602 3.57075 9.5368 2.74669 8.71313C0.275559 6.24199 -0.39241 2.90285 1.25536 1.25543C2.90279 -0.392342 6.24193 0.275627 8.71306 2.74676C9.53677 3.57082 10.1601 4.49086 10.564 5.41266" stroke="#1C0701" stroke-width="0.703125" stroke-miterlimit="10" stroke-linecap="round" stroke-linejoin="round"/>
<path d="M7.52625 7.48089C7.07028 7.31636 6.58231 7.22776 6.08098 7.22706C4.12067 7.2239 2.41383 5.88866 1.93817 3.98706L1.25543 1.25542L2.28024 2.96366C3.03258 4.21733 4.38715 4.98406 5.8493 4.98406C7.05024 4.98406 8.14535 5.49632 8.9107 6.32671" stroke="#1C0701" stroke-width="0.703125" stroke-miterlimit="10" stroke-linecap="round" stroke-linejoin="round"/>
<path d="M11.4609 14.8359C11.2669 14.8359 11.1093 14.6784 11.1093 14.4844C11.1093 14.2904 11.2669 14.1328 11.4609 14.1328C11.6549 14.1328 11.8124 14.2904 11.8124 14.4844C11.8124 14.6784 11.6549 14.8359 11.4609 14.8359Z" fill="#1C0701"/>
<path d="M10.3056 15.5641C9.7897 15.8854 9.1957 16.0993 8.55139 16.1708L6.01202 16.4531L7.35675 15.6463C8.80941 14.7744 9.62081 13.1361 9.43378 11.4521C9.18561 9.21831 10.6868 7.16518 12.8907 6.72467L16.4531 6.01206L14.1043 7.57792C12.7982 8.44838 12.087 9.9749 12.2604 11.5348C12.319 12.0617 12.2773 12.5767 12.1506 13.0607" stroke="#1C0701" stroke-width="0.703125" stroke-miterlimit="10" stroke-linecap="round" stroke-linejoin="round"/>
</g>
</g>
<defs>
<clipPath id="clip0_122_54">
<rect width="18" height="18" fill="white"/>
</clipPath>
</defs>
</svg>
